<?xml version="1.0" encoding="UTF-8"?>
<svg id="a" data-name="katman 1" xmlns="http://www.w3.org/2000/svg" width="2500" height="1309" viewBox="0 0 2500 1309">
  <defs>
    <style>
      .b {
        fill: #8993be;
      }

      .c {
        fill: #232531;
        fill-rule: evenodd;
      }
    </style>
  </defs>
  <ellipse class="b" cx="1250" cy="650.68" rx="1129.67" ry="588.05"/>
  <path class="c" d="m437.56,998.87l123.8-626.74h286.27c123.8,7.74,185.7,69.63,185.7,177.97,0,185.7-147.01,294.02-278.55,286.28h-139.26l-30.95,162.49h-147.02Zm208.91-278.54l38.69-232.13h100.58c54.16,0,92.84,23.21,92.84,69.63-7.73,131.54-69.63,154.76-139.27,162.5h-92.85Zm358.11,116.06l123.8-626.73h147.02l-30.95,162.48h139.27c123.8,7.74,170.23,69.63,154.76,147.02l-54.16,317.23h-154.75l54.16-286.28c7.73-38.69,7.73-61.9-46.42-61.9h-116.06l-69.63,348.19h-147.02Zm469.81,162.49l123.8-626.74h286.28c123.8,7.74,185.71,69.63,185.71,177.97,0,185.7-147.02,294.02-278.55,286.28h-139.28l-30.95,162.49h-147.01Zm208.9-278.54l38.69-232.13h100.59c54.16,0,92.84,23.21,92.84,69.63-7.73,131.54-69.63,154.76-139.27,162.5h-92.86Z"/>
</svg>